<svg width="70" height="70" viewBox="0 0 70 70" fill="none" xmlns="http://www.w3.org/2000/svg">
<path d="M68.2607 1.61092C68.4788 1.96371 68.5754 2.27791 68.6696 2.67864C74.1598 25.0448 62.7309 43.5941 33.014 47.4454C32.5623 45.8885 31.8379 41.9877 31.9809 40.2956C41.5659 39.8226 67.7537 34.138 64.0203 6.52842C64.0053 6.45221 63.9902 6.376 63.9747 6.29748C63.826 6.00794 63.6673 5.96618 63.3632 5.85253C51.866 4.88111 45.3557 8.441 41.6989 12.112C39.642 10.9648 37.4673 9.69931 35.1631 9.03685C44.0953 0.751236 56.3592 -1.84409 67.5497 1.28114C68.0858 1.42257 68.0858 1.42257 68.2607 1.61092Z" fill="url(#paint0_linear_56918_537)"/>
<path d="M50.9691 69.9985C50.5557 70.0117 50.2364 69.9386 49.8436 69.8201C27.8037 63.4102 17.516 44.1994 29.0521 16.4382C30.6211 16.824 34.3484 18.1446 35.7366 19.1149C31.3521 27.6846 23.1622 53.2942 48.8471 63.8532C48.9204 63.8782 48.9936 63.9033 49.0691 63.929C49.3932 63.9445 49.5086 63.8275 49.7587 63.6199C56.3453 54.1101 56.5294 46.6702 55.191 41.6555C57.2091 40.4408 59.3881 39.1829 61.1118 37.5109C63.7935 49.4192 59.9004 61.379 51.6091 69.5452C51.219 69.9406 51.219 69.9406 50.9691 69.9985Z" fill="url(#paint1_linear_56918_537)"/>
<path d="M0.0496005 20.4961C0.244872 20.1301 0.467638 19.889 0.766215 19.6067C17.3159 3.65055 39.0324 4.31202 57.2133 28.2219C56.096 29.3931 53.0931 31.9732 51.5619 32.695C46.3613 24.5983 28.3634 4.67332 6.41198 21.7239C6.35376 21.7751 6.29554 21.8263 6.23555 21.879C6.06014 22.1531 6.10344 22.3119 6.15748 22.6331C11.068 33.1143 17.3942 36.9943 22.3895 38.338C22.4283 40.6999 22.4239 43.2233 23.0046 45.5578C11.3907 41.935 3.01978 32.5706 0.120605 21.2792C-0.0254669 20.7423 -0.0254668 20.7423 0.0496005 20.4961Z" fill="url(#paint2_linear_56918_537)"/>
<defs>
<linearGradient id="paint0_linear_56918_537" x1="-0.204391" y1="19.7818" x2="57.7103" y2="35.24" gradientUnits="userSpaceOnUse">
<stop stop-color="#2B077E"/>
<stop offset="1" stop-color="#8B5CF6"/>
</linearGradient>
<linearGradient id="paint1_linear_56918_537" x1="-0.204391" y1="19.7818" x2="57.7103" y2="35.24" gradientUnits="userSpaceOnUse">
<stop stop-color="#2B077E"/>
<stop offset="1" stop-color="#8B5CF6"/>
</linearGradient>
<linearGradient id="paint2_linear_56918_537" x1="-0.204391" y1="19.7818" x2="57.7103" y2="35.24" gradientUnits="userSpaceOnUse">
<stop stop-color="#2B077E"/>
<stop offset="1" stop-color="#8B5CF6"/>
</linearGradient>
</defs>
</svg>
