<svg width="435" height="70" viewBox="0 0 435 70" fill="none" xmlns="http://www.w3.org/2000/svg">
<path d="M68.2607 1.61092C68.4788 1.96371 68.5754 2.27791 68.6696 2.67864C74.1598 25.0448 62.7309 43.5941 33.014 47.4454C32.5623 45.8885 31.8379 41.9877 31.9809 40.2956C41.5659 39.8226 67.7537 34.138 64.0203 6.52842C64.0053 6.45221 63.9902 6.376 63.9747 6.29748C63.826 6.00794 63.6673 5.96618 63.3632 5.85253C51.866 4.88111 45.3557 8.441 41.6989 12.112C39.642 10.9648 37.4673 9.69931 35.1631 9.03685C44.0953 0.751236 56.3592 -1.84409 67.5497 1.28114C68.0858 1.42257 68.0858 1.42257 68.2607 1.61092Z" fill="url(#paint0_linear_56918_546)"/>
<path d="M50.9691 69.9985C50.5557 70.0117 50.2364 69.9386 49.8436 69.8201C27.8037 63.4102 17.516 44.1994 29.0521 16.4382C30.6211 16.824 34.3484 18.1446 35.7366 19.1149C31.3521 27.6846 23.1622 53.2942 48.8471 63.8532C48.9204 63.8782 48.9936 63.9033 49.0691 63.929C49.3932 63.9445 49.5086 63.8275 49.7587 63.6199C56.3453 54.1101 56.5294 46.6702 55.191 41.6555C57.2091 40.4408 59.3881 39.1829 61.1118 37.5109C63.7935 49.4192 59.9004 61.379 51.6091 69.5452C51.219 69.9406 51.219 69.9406 50.9691 69.9985Z" fill="url(#paint1_linear_56918_546)"/>
<path d="M0.0496005 20.4961C0.244872 20.1301 0.467638 19.889 0.766215 19.6067C17.3159 3.65055 39.0324 4.31202 57.2133 28.2219C56.096 29.3931 53.0931 31.9732 51.5619 32.695C46.3613 24.5983 28.3634 4.67332 6.41198 21.7239C6.35376 21.7751 6.29554 21.8263 6.23555 21.879C6.06014 22.1531 6.10344 22.3119 6.15748 22.6331C11.068 33.1143 17.3942 36.9943 22.3895 38.338C22.4283 40.6999 22.4239 43.2233 23.0046 45.5578C11.3907 41.935 3.01978 32.5706 0.120605 21.2792C-0.0254669 20.7423 -0.0254668 20.7423 0.0496005 20.4961Z" fill="url(#paint2_linear_56918_546)"/>
<path d="M98.64 42V12.36H104.56V42H98.64ZM126.243 42V12.36H132.283L140.883 28.16L143.883 34.56H144.083C143.923 33.0133 143.75 31.32 143.563 29.48C143.376 27.64 143.283 25.88 143.283 24.2V12.36H148.883V42H142.843L134.323 26.16L131.323 19.8H131.123C131.256 21.4 131.416 23.0933 131.603 24.88C131.79 26.6667 131.883 28.4133 131.883 30.12V42H126.243ZM176.484 42V17.32H168.164V12.36H190.764V17.32H182.404V42H176.484ZM210.004 42V12.36H228.164V17.32H215.924V24.16H226.284V29.12H215.924V37.04H228.604V42H210.004ZM249.013 42V12.36H259.293C261.4 12.36 263.293 12.64 264.973 13.2C266.653 13.7333 267.987 14.6667 268.973 16C269.96 17.3067 270.453 19.0933 270.453 21.36C270.453 23.5467 269.96 25.3467 268.973 26.76C267.987 28.1467 266.653 29.1733 264.973 29.84C263.293 30.48 261.4 30.8 259.293 30.8H254.933V42H249.013ZM254.933 26.12H258.773C260.693 26.12 262.147 25.72 263.133 24.92C264.147 24.12 264.653 22.9333 264.653 21.36C264.653 19.76 264.147 18.6533 263.133 18.04C262.147 17.4 260.693 17.08 258.773 17.08H254.933V26.12ZM265.093 42L258.213 29.28L262.373 25.6L271.733 42H265.093ZM290.679 42V12.36H296.599V37.04H308.639V42H290.679ZM323.974 42L333.454 12.36H340.454L349.934 42H343.694L339.494 26.56C339.041 25.0133 338.601 23.4133 338.174 21.76C337.774 20.08 337.348 18.4533 336.894 16.88H336.734C336.361 18.48 335.948 20.1067 335.494 21.76C335.068 23.4133 334.641 25.0133 334.214 26.56L329.974 42H323.974ZM329.854 34.4V29.8H343.934V34.4H329.854ZM379.175 42.56C377.309 42.56 375.562 42.24 373.935 41.6C372.309 40.9333 370.869 39.9467 369.615 38.64C368.389 37.3333 367.415 35.7333 366.695 33.84C366.002 31.9467 365.655 29.7733 365.655 27.32C365.655 24.8667 366.015 22.6933 366.735 20.8C367.455 18.88 368.442 17.2533 369.695 15.92C370.975 14.5867 372.442 13.5733 374.095 12.88C375.775 12.1867 377.549 11.84 379.415 11.84C381.309 11.84 382.989 12.2267 384.455 13C385.949 13.7467 387.162 14.6267 388.095 15.64L385.015 19.4C384.269 18.6533 383.442 18.0533 382.535 17.6C381.655 17.1467 380.655 16.92 379.535 16.92C378.042 16.92 376.695 17.3333 375.495 18.16C374.322 18.96 373.402 20.12 372.735 21.64C372.069 23.16 371.735 24.9867 371.735 27.12C371.735 29.28 372.042 31.1333 372.655 32.68C373.295 34.2 374.189 35.3733 375.335 36.2C376.509 37.0267 377.869 37.44 379.415 37.44C380.695 37.44 381.829 37.1733 382.815 36.64C383.829 36.08 384.722 35.3733 385.495 34.52L388.655 38.2C387.429 39.64 386.029 40.7333 384.455 41.48C382.882 42.2 381.122 42.56 379.175 42.56ZM407.785 42V12.36H425.945V17.32H413.705V24.16H424.065V29.12H413.705V37.04H426.385V42H407.785Z" fill="black"/>
<path d="M96.16 66.224C95.1147 66.224 94.192 65.9787 93.392 65.488C92.6027 64.9867 91.984 64.272 91.536 63.344C91.088 62.416 90.864 61.3067 90.864 60.016C90.864 58.736 91.088 57.6427 91.536 56.736C91.984 55.8293 92.6027 55.136 93.392 54.656C94.192 54.176 95.1147 53.936 96.16 53.936C97.216 53.936 98.1387 54.1813 98.928 54.672C99.7173 55.152 100.336 55.8453 100.784 56.752C101.232 57.648 101.456 58.736 101.456 60.016C101.456 61.3067 101.232 62.416 100.784 63.344C100.336 64.272 99.7173 64.9867 98.928 65.488C98.1387 65.9787 97.216 66.224 96.16 66.224ZM96.16 64.176C96.7467 64.176 97.2533 64.0053 97.68 63.664C98.1173 63.3227 98.4533 62.8427 98.688 62.224C98.9227 61.5947 99.04 60.8587 99.04 60.016C99.04 59.1733 98.9227 58.4533 98.688 57.856C98.4533 57.248 98.1173 56.784 97.68 56.464C97.2533 56.1333 96.7467 55.968 96.16 55.968C95.5733 55.968 95.0613 56.1333 94.624 56.464C94.1973 56.784 93.8667 57.248 93.632 57.856C93.408 58.4533 93.296 59.1733 93.296 60.016C93.296 60.8587 93.408 61.5947 93.632 62.224C93.8667 62.8427 94.1973 63.3227 94.624 63.664C95.0613 64.0053 95.5733 64.176 96.16 64.176ZM109.529 66V54.144H113.641C114.483 54.144 115.241 54.256 115.913 54.48C116.585 54.6933 117.118 55.0667 117.513 55.6C117.907 56.1227 118.105 56.8373 118.105 57.744C118.105 58.6187 117.907 59.3387 117.513 59.904C117.118 60.4587 116.585 60.8693 115.913 61.136C115.241 61.392 114.483 61.52 113.641 61.52H111.897V66H109.529ZM111.897 59.648H113.433C114.201 59.648 114.782 59.488 115.177 59.168C115.582 58.848 115.785 58.3733 115.785 57.744C115.785 57.104 115.582 56.6613 115.177 56.416C114.782 56.16 114.201 56.032 113.433 56.032H111.897V59.648ZM115.961 66L113.209 60.912L114.873 59.44L118.617 66H115.961ZM131.011 66.224C130.264 66.224 129.565 66.096 128.915 65.84C128.264 65.5733 127.688 65.1787 127.187 64.656C126.696 64.1333 126.307 63.4933 126.019 62.736C125.741 61.9787 125.603 61.1093 125.603 60.128C125.603 59.1467 125.747 58.2773 126.035 57.52C126.323 56.752 126.717 56.1013 127.219 55.568C127.731 55.0347 128.317 54.6293 128.979 54.352C129.651 54.0747 130.36 53.936 131.107 53.936C131.864 53.936 132.536 54.0907 133.123 54.4C133.72 54.6987 134.205 55.0507 134.579 55.456L133.347 56.96C133.048 56.6613 132.717 56.4213 132.355 56.24C132.003 56.0587 131.603 55.968 131.155 55.968C130.557 55.968 130.019 56.1333 129.539 56.464C129.069 56.784 128.701 57.248 128.435 57.856C128.168 58.464 128.035 59.1947 128.035 60.048C128.035 60.912 128.157 61.6533 128.403 62.272C128.659 62.88 129.016 63.3493 129.475 63.68C129.944 64.0107 130.488 64.176 131.107 64.176C131.619 64.176 132.072 64.0693 132.467 63.856C132.872 63.632 133.229 63.3493 133.539 63.008L134.803 64.48C134.312 65.056 133.752 65.4933 133.123 65.792C132.493 66.08 131.789 66.224 131.011 66.224ZM142.455 66V54.144H144.823V58.832H149.303V54.144H151.655V66H149.303V60.88H144.823V66H142.455ZM160.324 66V54.144H167.588V56.128H162.692V58.864H166.836V60.848H162.692V64.016H167.764V66H160.324ZM179.464 66.224C178.675 66.224 177.901 66.0747 177.144 65.776C176.387 65.4773 175.72 65.0507 175.144 64.496L176.504 62.864C176.92 63.2587 177.395 63.5787 177.928 63.824C178.472 64.0587 179 64.176 179.512 64.176C180.131 64.176 180.6 64.0533 180.92 63.808C181.24 63.5627 181.4 63.232 181.4 62.816C181.4 62.5173 181.32 62.2827 181.16 62.112C181.011 61.9307 180.803 61.7707 180.536 61.632C180.269 61.4933 179.96 61.3547 179.608 61.216L178.04 60.528C177.645 60.368 177.261 60.1547 176.888 59.888C176.525 59.6107 176.221 59.264 175.976 58.848C175.741 58.432 175.624 57.936 175.624 57.36C175.624 56.7093 175.8 56.128 176.152 55.616C176.504 55.104 176.989 54.6987 177.608 54.4C178.227 54.0907 178.931 53.936 179.72 53.936C180.424 53.936 181.101 54.0693 181.752 54.336C182.403 54.6027 182.968 54.9813 183.448 55.472L182.248 56.944C181.875 56.6347 181.485 56.3947 181.08 56.224C180.675 56.0533 180.221 55.968 179.72 55.968C179.208 55.968 178.797 56.08 178.488 56.304C178.189 56.5173 178.04 56.8213 178.04 57.216C178.04 57.4933 178.125 57.7227 178.296 57.904C178.467 58.0853 178.691 58.2453 178.968 58.384C179.245 58.512 179.549 58.6453 179.88 58.784L181.432 59.408C181.912 59.6 182.328 59.84 182.68 60.128C183.043 60.416 183.32 60.7627 183.512 61.168C183.715 61.5733 183.816 62.064 183.816 62.64C183.816 63.28 183.64 63.872 183.288 64.416C182.947 64.96 182.451 65.3973 181.8 65.728C181.16 66.0587 180.381 66.224 179.464 66.224ZM193.571 66V56.128H190.243V54.144H199.283V56.128H195.939V66H193.571ZM206.979 66V54.144H211.091C211.934 54.144 212.691 54.256 213.363 54.48C214.035 54.6933 214.568 55.0667 214.963 55.6C215.358 56.1227 215.555 56.8373 215.555 57.744C215.555 58.6187 215.358 59.3387 214.963 59.904C214.568 60.4587 214.035 60.8693 213.363 61.136C212.691 61.392 211.934 61.52 211.091 61.52H209.347V66H206.979ZM209.347 59.648H210.883C211.651 59.648 212.232 59.488 212.627 59.168C213.032 58.848 213.235 58.3733 213.235 57.744C213.235 57.104 213.032 56.6613 212.627 56.416C212.232 56.16 211.651 56.032 210.883 56.032H209.347V59.648ZM213.411 66L210.659 60.912L212.323 59.44L216.067 66H213.411ZM221.907 66L225.699 54.144H228.499L232.291 66H229.795L228.115 59.824C227.933 59.2053 227.757 58.5653 227.587 57.904C227.427 57.232 227.256 56.5813 227.075 55.952H227.011C226.861 56.592 226.696 57.2427 226.515 57.904C226.344 58.5653 226.173 59.2053 226.003 59.824L224.307 66H221.907ZM224.259 62.96V61.12H229.891V62.96H224.259ZM240.476 66V56.128H237.148V54.144H246.188V56.128H242.844V66H240.476ZM253.884 66V54.144H261.148V56.128H256.252V58.864H260.396V60.848H256.252V64.016H261.324V66H253.884ZM276.032 57.872C276.416 57.872 276.757 57.968 277.056 58.16C277.365 58.3413 277.611 58.5867 277.792 58.896C277.984 59.1947 278.08 59.536 278.08 59.92C278.08 60.2933 277.984 60.6347 277.792 60.944C277.611 61.2533 277.365 61.504 277.056 61.696C276.757 61.8773 276.416 61.968 276.032 61.968C275.659 61.968 275.317 61.8773 275.008 61.696C274.699 61.504 274.448 61.2533 274.256 60.944C274.075 60.6347 273.984 60.2933 273.984 59.92C273.984 59.536 274.075 59.1947 274.256 58.896C274.448 58.5867 274.699 58.3413 275.008 58.16C275.317 57.968 275.659 57.872 276.032 57.872ZM293.6 66V56.128H290.272V54.144H299.312V56.128H295.968V66H293.6ZM307.008 66V54.144H311.12C311.963 54.144 312.72 54.256 313.392 54.48C314.064 54.6933 314.597 55.0667 314.992 55.6C315.387 56.1227 315.584 56.8373 315.584 57.744C315.584 58.6187 315.387 59.3387 314.992 59.904C314.597 60.4587 314.064 60.8693 313.392 61.136C312.72 61.392 311.963 61.52 311.12 61.52H309.376V66H307.008ZM309.376 59.648H310.912C311.68 59.648 312.261 59.488 312.656 59.168C313.061 58.848 313.264 58.3733 313.264 57.744C313.264 57.104 313.061 56.6613 312.656 56.416C312.261 56.16 311.68 56.032 310.912 56.032H309.376V59.648ZM313.44 66L310.688 60.912L312.352 59.44L316.096 66H313.44ZM321.935 66L325.727 54.144H328.527L332.319 66H329.823L328.143 59.824C327.962 59.2053 327.786 58.5653 327.615 57.904C327.455 57.232 327.285 56.5813 327.103 55.952H327.039C326.89 56.592 326.725 57.2427 326.543 57.904C326.373 58.5653 326.202 59.2053 326.031 59.824L324.335 66H321.935ZM324.287 62.96V61.12H329.919V62.96H324.287ZM339.465 66V54.144H341.881L345.321 60.464L346.521 63.024H346.601C346.537 62.4053 346.468 61.728 346.393 60.992C346.319 60.256 346.281 59.552 346.281 58.88V54.144H348.521V66H346.105L342.697 59.664L341.497 57.12H341.417C341.471 57.76 341.535 58.4373 341.609 59.152C341.684 59.8667 341.721 60.5653 341.721 61.248V66H339.465ZM360.746 66.224C359.956 66.224 359.183 66.0747 358.426 65.776C357.668 65.4773 357.002 65.0507 356.426 64.496L357.786 62.864C358.202 63.2587 358.676 63.5787 359.21 63.824C359.754 64.0587 360.282 64.176 360.794 64.176C361.412 64.176 361.882 64.0533 362.202 63.808C362.522 63.5627 362.682 63.232 362.682 62.816C362.682 62.5173 362.602 62.2827 362.442 62.112C362.292 61.9307 362.084 61.7707 361.818 61.632C361.551 61.4933 361.242 61.3547 360.89 61.216L359.322 60.528C358.927 60.368 358.543 60.1547 358.17 59.888C357.807 59.6107 357.503 59.264 357.258 58.848C357.023 58.432 356.906 57.936 356.906 57.36C356.906 56.7093 357.082 56.128 357.434 55.616C357.786 55.104 358.271 54.6987 358.89 54.4C359.508 54.0907 360.212 53.936 361.002 53.936C361.706 53.936 362.383 54.0693 363.034 54.336C363.684 54.6027 364.25 54.9813 364.73 55.472L363.53 56.944C363.156 56.6347 362.767 56.3947 362.362 56.224C361.956 56.0533 361.503 55.968 361.002 55.968C360.49 55.968 360.079 56.08 359.77 56.304C359.471 56.5173 359.322 56.8213 359.322 57.216C359.322 57.4933 359.407 57.7227 359.578 57.904C359.748 58.0853 359.972 58.2453 360.25 58.384C360.527 58.512 360.831 58.6453 361.162 58.784L362.714 59.408C363.194 59.6 363.61 59.84 363.962 60.128C364.324 60.416 364.602 60.7627 364.794 61.168C364.996 61.5733 365.098 62.064 365.098 62.64C365.098 63.28 364.922 63.872 364.57 64.416C364.228 64.96 363.732 65.3973 363.082 65.728C362.442 66.0587 361.663 66.224 360.746 66.224ZM372.954 66V54.144H380.25V56.128H375.322V59.216H379.53V61.2H375.322V66H372.954ZM392.512 66.224C391.467 66.224 390.544 65.9787 389.744 65.488C388.955 64.9867 388.336 64.272 387.888 63.344C387.44 62.416 387.216 61.3067 387.216 60.016C387.216 58.736 387.44 57.6427 387.888 56.736C388.336 55.8293 388.955 55.136 389.744 54.656C390.544 54.176 391.467 53.936 392.512 53.936C393.568 53.936 394.491 54.1813 395.28 54.672C396.069 55.152 396.688 55.8453 397.136 56.752C397.584 57.648 397.808 58.736 397.808 60.016C397.808 61.3067 397.584 62.416 397.136 63.344C396.688 64.272 396.069 64.9867 395.28 65.488C394.491 65.9787 393.568 66.224 392.512 66.224ZM392.512 64.176C393.099 64.176 393.605 64.0053 394.032 63.664C394.469 63.3227 394.805 62.8427 395.04 62.224C395.275 61.5947 395.392 60.8587 395.392 60.016C395.392 59.1733 395.275 58.4533 395.04 57.856C394.805 57.248 394.469 56.784 394.032 56.464C393.605 56.1333 393.099 55.968 392.512 55.968C391.925 55.968 391.413 56.1333 390.976 56.464C390.549 56.784 390.219 57.248 389.984 57.856C389.76 58.4533 389.648 59.1733 389.648 60.016C389.648 60.8587 389.76 61.5947 389.984 62.224C390.219 62.8427 390.549 63.3227 390.976 63.664C391.413 64.0053 391.925 64.176 392.512 64.176ZM405.88 66V54.144H409.992C410.835 54.144 411.592 54.256 412.264 54.48C412.936 54.6933 413.47 55.0667 413.864 55.6C414.259 56.1227 414.456 56.8373 414.456 57.744C414.456 58.6187 414.259 59.3387 413.864 59.904C413.47 60.4587 412.936 60.8693 412.264 61.136C411.592 61.392 410.835 61.52 409.992 61.52H408.248V66H405.88ZM408.248 59.648H409.784C410.552 59.648 411.134 59.488 411.528 59.168C411.934 58.848 412.136 58.3733 412.136 57.744C412.136 57.104 411.934 56.6613 411.528 56.416C411.134 56.16 410.552 56.032 409.784 56.032H408.248V59.648ZM412.312 66L409.56 60.912L411.224 59.44L414.968 66H412.312ZM422.547 66V54.144H425.171L427.187 59.712C427.315 60.064 427.437 60.4373 427.555 60.832C427.672 61.216 427.789 61.5947 427.907 61.968H427.987C428.115 61.5947 428.237 61.216 428.355 60.832C428.472 60.4373 428.584 60.064 428.691 59.712L430.675 54.144H433.299V66H431.139V61.056C431.139 60.672 431.155 60.2507 431.187 59.792C431.219 59.3333 431.256 58.8747 431.299 58.416C431.352 57.9467 431.4 57.5307 431.443 57.168H431.379L430.403 59.952L428.579 64.928H427.219L425.379 59.952L424.435 57.168H424.371C424.413 57.5307 424.456 57.9467 424.499 58.416C424.541 58.8747 424.579 59.3333 424.611 59.792C424.653 60.2507 424.675 60.672 424.675 61.056V66H422.547Z" fill="#8B5CF6"/>
<defs>
<linearGradient id="paint0_linear_56918_546" x1="-0.204391" y1="19.7818" x2="57.7103" y2="35.24" gradientUnits="userSpaceOnUse">
<stop stop-color="#2B077E"/>
<stop offset="1" stop-color="#8B5CF6"/>
</linearGradient>
<linearGradient id="paint1_linear_56918_546" x1="-0.204391" y1="19.7818" x2="57.7103" y2="35.24" gradientUnits="userSpaceOnUse">
<stop stop-color="#2B077E"/>
<stop offset="1" stop-color="#8B5CF6"/>
</linearGradient>
<linearGradient id="paint2_linear_56918_546" x1="-0.204391" y1="19.7818" x2="57.7103" y2="35.24" gradientUnits="userSpaceOnUse">
<stop stop-color="#2B077E"/>
<stop offset="1" stop-color="#8B5CF6"/>
</linearGradient>
</defs>
</svg>
